grf
version=1
nRows=64
nColumns=19
inDegrees=yes
endheader
time	ground_force_1_vx	ground_force_1_vy	ground_force_1_vz	ground_force_1_px	ground_force_1_py	ground_force_1_pz	ground_moment_1_mx	ground_moment_1_my	ground_moment_1_mz	ground_force_2_vx	ground_force_2_vy	ground_force_2_vz	ground_force_2_px	ground_force_2_py	ground_force_2_pz	ground_moment_2_mx	ground_moment_2_my	ground_moment_2_mz
3.860000	25.258785	991.689880	-290.699005	0.131371	0.000000	-0.792703	0.000000	8.475242	0.000000	-9.956720	1101.678467	349.883514	0.170386	0.000000	-1.576816	0.000000	-6.991603	-0.000000
3.861000	23.000895	991.842163	-288.485016	0.131524	0.000000	-0.792972	0.000000	8.361886	0.000000	-8.870323	1092.585815	347.831238	0.169399	0.000000	-1.576591	0.000000	-7.087521	-0.000000
3.862000	25.103130	973.600159	-286.030243	0.130116	0.000000	-0.794479	0.000000	8.482310	0.000000	-9.796177	1090.999878	345.538818	0.169875	0.000000	-1.575837	0.000000	-6.913918	-0.000000
3.863000	23.726822	975.501587	-284.096252	0.130105	0.000000	-0.792537	0.000000	8.522987	0.000000	-7.020959	1090.036377	342.643494	0.169690	0.000000	-1.575605	0.000000	-6.884944	-0.000000
3.864000	24.413645	975.654175	-281.843018	0.131232	0.000000	-0.793198	0.000000	8.105439	0.000000	-8.547993	1090.369629	341.756561	0.169034	0.000000	-1.576152	0.000000	-6.727983	-0.000000
3.865000	23.806931	968.107544	-279.912506	0.131403	0.000000	-0.792614	0.000000	8.121506	0.000000	-8.266799	1078.717041	338.781342	0.168872	0.000000	-1.575858	0.000000	-6.776626	-0.000000
3.866000	24.623236	965.073242	-278.297455	0.130811	0.000000	-0.792232	0.000000	7.582653	0.000000	-7.542901	1070.115845	336.689636	0.169333	0.000000	-1.576160	0.000000	-6.508059	-0.000000
3.867000	23.326656	958.651367	-276.566132	0.131048	0.000000	-0.793095	0.000000	7.730931	0.000000	-5.696297	1065.808594	334.919617	0.168987	0.000000	-1.575300	0.000000	-6.917166	-0.000000
3.868000	23.122391	954.969666	-273.067322	0.130191	0.000000	-0.793673	0.000000	8.087800	0.000000	-6.618978	1071.247314	332.225708	0.171175	0.000000	-1.574540	0.000000	-5.856257	-0.000000
3.869000	21.709641	951.750122	-274.233032	0.130974	0.000000	-0.792701	0.000000	7.906874	0.000000	-7.100060	1056.240234	330.255127	0.167917	0.000000	-1.575228	0.000000	-6.682783	-0.000000
3.870000	22.034260	946.162292	-272.215881	0.129955	0.000000	-0.792148	0.000000	7.816338	0.000000	-6.738387	1041.570801	328.282623	0.168914	0.000000	-1.574747	0.000000	-6.136630	-0.000000
3.871000	22.033880	946.295776	-270.886475	0.130920	0.000000	-0.793220	0.000000	7.496276	0.000000	-7.060164	1039.187134	325.428619	0.167778	0.000000	-1.574237	0.000000	-6.516484	-0.000000
3.872000	20.578224	939.261780	-270.645477	0.129226	0.000000	-0.791647	0.000000	8.120610	0.000000	-5.612231	1036.302124	322.209351	0.166833	0.000000	-1.574109	0.000000	-6.514880	-0.000000
3.873000	21.272274	945.822327	-268.628540	0.130340	0.000000	-0.793820	0.000000	7.235378	0.000000	-5.492961	1025.941528	321.044189	0.166745	0.000000	-1.574180	0.000000	-6.758834	-0.000000
3.874000	19.536425	939.406433	-269.073853	0.130473	0.000000	-0.793732	0.000000	7.420175	0.000000	-5.451824	1030.093994	319.234558	0.167290	0.000000	-1.574602	0.000000	-6.415176	-0.000000
3.875000	19.576670	934.091187	-268.670105	0.130844	0.000000	-0.794337	0.000000	7.268459	-0.000000	-5.091117	1020.521729	317.143799	0.166700	0.000000	-1.574088	0.000000	-6.709074	-0.000000
3.876000	19.378489	945.486084	-268.188385	0.130668	0.000000	-0.795990	0.000000	7.237167	0.000000	-2.432411	1002.979126	314.570160	0.166664	0.000000	-1.573757	0.000000	-6.150855	-0.000000
3.877000	18.128241	939.733643	-267.698914	0.129975	0.000000	-0.792888	0.000000	7.099702	0.000000	-4.124265	1016.215820	311.273224	0.166322	0.000000	-1.573433	0.000000	-6.494339	-0.000000
3.878000	18.488161	938.763855	-268.546356	0.130167	0.000000	-0.793279	0.000000	7.301460	0.000000	-3.079003	1010.953247	309.784729	0.166139	0.000000	-1.573498	0.000000	-6.504191	-0.000000
3.879000	17.765657	941.317505	-268.385681	0.130442	0.000000	-0.794433	0.000000	7.121973	-0.000000	-3.764661	998.198975	306.889954	0.165596	0.000000	-1.574064	0.000000	-6.844952	-0.000000
3.880000	16.559076	941.807739	-268.545410	0.130314	0.000000	-0.793926	0.000000	6.978857	0.000000	-3.803728	995.016113	305.441223	0.166099	0.000000	-1.573472	0.000000	-6.407674	-0.000000
3.881000	16.683235	951.101196	-269.469452	0.130716	0.000000	-0.794933	0.000000	6.713642	0.000000	-3.364059	989.430664	303.310089	0.165716	0.000000	-1.573523	0.000000	-6.788294	-0.000000
3.882000	15.064316	937.482117	-269.711853	0.130225	0.000000	-0.793438	0.000000	7.138071	0.000000	-3.523776	991.671387	300.574890	0.166288	0.000000	-1.573597	0.000000	-6.318829	-0.000000
3.883000	13.971242	955.875305	-269.830688	0.132249	0.000000	-0.793505	0.000000	6.714807	0.000000	-3.444124	978.436462	299.086945	0.165737	0.000000	-1.573515	0.000000	-6.520329	-0.000000
3.884000	15.515376	951.588074	-270.716217	0.130228	0.000000	-0.795496	0.000000	6.804021	0.000000	-2.238456	979.718994	297.277405	0.166623	0.000000	-1.571839	0.000000	-6.307809	-0.000000
3.885000	15.557522	947.583984	-270.954407	0.130118	0.000000	-0.793868	0.000000	6.602079	0.000000	-2.841566	965.363708	294.422028	0.166016	0.000000	-1.573082	0.000000	-6.345378	-0.000000
3.886000	15.233664	950.144836	-272.648132	0.130209	0.000000	-0.794294	0.000000	6.837521	0.000000	-3.043247	966.158630	293.176086	0.165697	0.000000	-1.573266	0.000000	-6.526667	-0.000000
3.887000	15.882523	953.654175	-272.041443	0.130860	0.000000	-0.794595	0.000000	6.358002	0.000000	-3.406437	958.673401	291.407288	0.165829	0.000000	-1.573136	0.000000	-6.615167	-0.000000
3.888000	16.128937	942.309631	-272.969208	0.130305	0.000000	-0.790373	0.000000	6.366077	0.000000	-3.968549	958.830322	289.556641	0.165867	0.000000	-1.572788	0.000000	-6.347315	-0.000000
3.889000	15.717360	952.713440	-274.055298	0.130459	0.000000	-0.792552	0.000000	6.732493	0.000000	-3.969377	963.431519	287.343689	0.165497	0.000000	-1.570764	0.000000	-6.355461	-0.000000
3.890000	14.910184	956.890503	-275.101929	0.130200	0.000000	-0.794963	0.000000	6.922844	0.000000	-4.615554	954.351929	288.794983	0.164953	0.000000	-1.571740	0.000000	-7.201907	-0.000000
3.891000	16.612633	967.413635	-275.825378	0.132628	0.000000	-0.793192	0.000000	5.814380	0.000000	-4.734962	947.356934	286.340637	0.165696	0.000000	-1.573588	0.000000	-6.644347	0.000000
3.892000	16.208666	953.844482	-277.153412	0.130745	0.000000	-0.790540	0.000000	6.365456	0.000000	-5.016846	948.001953	285.214661	0.166472	0.000000	-1.573405	0.000000	-6.422653	-0.000000
3.893000	17.015081	963.141296	-277.515381	0.130375	0.000000	-0.794000	0.000000	6.519742	0.000000	-5.782846	935.239136	283.768066	0.165361	0.000000	-1.572913	0.000000	-6.993030	-0.000000
3.894000	16.444809	962.665466	-278.965546	0.130172	0.000000	-0.792514	0.000000	6.903837	0.000000	-6.144657	940.500610	282.963287	0.165883	0.000000	-1.572421	0.000000	-6.745068	-0.000000
3.895000	17.295654	975.957825	-280.333252	0.131651	0.000000	-0.792575	0.000000	6.326752	0.000000	-6.949586	929.824951	284.248840	0.166827	0.000000	-1.572645	0.000000	-6.465058	-0.000000
3.896000	17.174538	967.327759	-281.621582	0.130719	0.000000	-0.790705	0.000000	6.624090	0.000000	-5.784777	937.957092	282.320007	0.166583	0.000000	-1.573002	0.000000	-6.784938	-0.000000
3.897000	17.416388	981.890808	-282.709320	0.131696	0.000000	-0.792971	0.000000	6.468741	0.000000	-7.713929	932.862976	282.883911	0.166341	0.000000	-1.573876	0.000000	-6.795258	-0.000000
3.898000	17.419811	988.147156	-284.803070	0.131680	0.000000	-0.793518	0.000000	6.442116	0.000000	-9.122934	929.510620	282.923981	0.166579	0.000000	-1.573279	0.000000	-6.858039	-0.000000
3.899000	18.310520	977.238831	-285.327789	0.131516	0.000000	-0.793251	0.000000	6.401532	0.000000	-10.691104	928.881592	283.005371	0.167175	0.000000	-1.573996	0.000000	-6.733951	-0.000000
3.900000	17.373861	986.231506	-287.258759	0.131661	0.000000	-0.791637	0.000000	6.761084	0.000000	-10.490388	936.532593	283.366882	0.166964	0.000000	-1.574355	0.000000	-6.821204	-0.000000
3.901000	18.673483	993.458313	-288.707977	0.131232	0.000000	-0.792154	0.000000	6.544791	0.000000	-12.743526	928.557373	284.131714	0.166645	0.000000	-1.574438	0.000000	-7.101553	-0.000000
3.902000	18.227367	1003.054871	-289.834503	0.132401	0.000000	-0.792666	0.000000	6.349015	0.000000	-13.507319	933.825317	285.579620	0.167348	0.000000	-1.573748	0.000000	-6.912692	0.000000
3.903000	18.955578	999.532776	-292.812561	0.133081	0.000000	-0.790244	0.000000	6.080811	0.000000	-12.462608	941.324707	286.785583	0.168821	0.000000	-1.573698	0.000000	-6.611277	-0.000000
3.904000	17.903889	1009.501709	-293.295013	0.131367	0.000000	-0.791290	-0.000000	6.749641	0.000000	-15.236172	937.484619	287.871399	0.166592	0.000000	-1.573662	0.000000	-7.095058	-0.000000
3.905000	18.151064	1004.990845	-294.303345	0.132182	0.000000	-0.792420	0.000000	6.426836	0.000000	-16.522871	941.634033	289.680908	0.167811	0.000000	-1.573941	0.000000	-6.759123	-0.000000
3.906000	18.878891	1013.015564	-297.080139	0.132143	0.000000	-0.791790	0.000000	6.411061	0.000000	-17.287214	937.649719	290.927368	0.167043	0.000000	-1.573732	0.000000	-7.022157	0.000000
3.907000	18.595276	1017.974182	-298.652435	0.132968	0.000000	-0.792141	0.000000	6.392546	0.000000	-18.292444	940.207031	291.772095	0.167936	0.000000	-1.574356	0.000000	-6.791051	0.000000
3.908000	18.066389	1014.932434	-300.705078	0.132761	0.000000	-0.790563	0.000000	6.697671	0.000000	-18.775181	941.633789	294.866211	0.168753	0.000000	-1.573405	0.000000	-6.434630	-0.000000
3.909000	18.151064	1023.429932	-301.992920	0.132589	0.000000	-0.791290	0.000000	6.628864	0.000000	-19.176060	953.599365	295.269623	0.168103	0.000000	-1.572213	0.000000	-6.576726	-0.000000
3.910000	18.476065	1030.955688	-303.360413	0.133299	0.000000	-0.791764	0.000000	6.321177	0.000000	-20.222012	953.112854	297.884033	0.168174	0.000000	-1.574084	0.000000	-6.753176	-0.000000
3.911000	18.312803	1033.058716	-304.284943	0.132663	0.000000	-0.791166	0.000000	6.569288	0.000000	-21.188450	959.013794	298.447662	0.166385	0.000000	-1.575155	0.000000	-7.518623	-0.000000
3.912000	16.043882	1027.470093	-305.977478	0.131612	0.000000	-0.790387	0.000000	7.510370	0.000000	-20.785641	965.062744	301.221985	0.167410	0.000000	-1.574805	0.000000	-7.191866	-0.000000
3.913000	18.072855	1028.566040	-308.028961	0.132806	0.000000	-0.789411	0.000000	6.572908	0.000000	-21.790733	967.294189	302.386963	0.166842	0.000000	-1.575083	0.000000	-7.247714	-0.000000
3.914000	16.501030	1053.555664	-306.950104	0.132719	0.000000	-0.794586	0.000000	6.963083	0.000000	-21.307720	970.318481	304.920715	0.166950	0.000000	-1.574820	0.000000	-7.284470	0.000000
3.915000	18.231173	1042.989136	-310.205841	0.133663	0.000000	-0.789655	0.000000	6.650880	0.000000	-20.223116	992.014893	306.769897	0.169463	0.000000	-1.574237	0.000000	-6.662772	-0.000000
3.916000	16.409508	1044.111572	-311.048615	0.133192	0.000000	-0.790785	-0.000000	7.069972	0.000000	-21.989931	976.219360	307.615051	0.167215	0.000000	-1.574454	0.000000	-7.109614	0.000000
3.917000	16.292198	1051.639893	-312.500854	0.133936	0.000000	-0.791013	0.000000	6.871158	0.000000	-21.306202	984.988647	310.107849	0.167561	0.000000	-1.574075	0.000000	-7.040685	-0.000000
3.918000	17.108503	1050.529785	-314.110291	0.133519	0.000000	-0.790065	0.000000	6.585945	0.000000	-22.232195	991.204285	310.871704	0.167778	0.000000	-1.574118	0.000000	-7.091312	-0.000000
3.919000	15.972522	1059.808594	-314.873413	0.134192	0.000000	-0.791239	0.000000	6.662222	0.000000	-22.432632	993.601196	313.204285	0.167595	0.000000	-1.574998	0.000000	-7.185601	-0.000000
3.920000	14.480804	1057.895142	-318.055145	0.133606	0.000000	-0.790121	0.000000	7.026368	0.000000	-21.547915	1011.291748	314.370728	0.166483	0.000000	-1.575718	0.000000	-7.628215	-0.000000
3.921000	14.320967	1074.241699	-320.706757	0.133532	0.000000	-0.793466	0.000000	6.924692	0.000000	-21.869694	1001.399292	316.179108	0.166557	0.000000	-1.574654	0.000000	-7.533349	-0.000000
3.922000	12.504249	1053.255737	-321.918274	0.134334	0.000000	-0.786590	0.000000	6.897688	0.000000	-19.538561	1005.382446	317.304871	0.165754	0.000000	-1.575495	0.000000	-8.016894	-0.000000
3.923000	12.946941	1072.315552	-323.203796	0.134460	0.000000	-0.790065	0.000000	6.871196	0.000000	-21.868313	1012.086670	318.712036	0.167042	0.000000	-1.575311	0.000000	-7.273592	-0.000000
